<svg width="426" height="207" viewBox="0 0 426 207" fill="none" xmlns="http://www.w3.org/2000/svg">
<g style="mix-blend-mode:multiply" opacity="0.06">
<path d="M113.557 82.6097L0 214.168L106.312 337H426V0L419.208 12.3082H411.963L408.567 23.833H404.038C402.831 25.7538 400.325 29.5954 399.963 29.5954C399.601 29.5954 397.246 31.9004 396.114 33.0529L386.379 36.5104L380.718 41.1203L371.662 36.5104L366.907 33.0529L360.115 41.1203H353.097L347.21 33.0529C344.946 31.9004 340.327 29.5954 339.965 29.5954C339.603 29.5954 336.644 27.2905 335.21 26.138H331.588L322.984 29.5954L315.513 33.0529L312.117 41.1203L301.928 44.5778L296.721 48.0352L290.834 53.7976L285.174 67.6274H282.684L275.891 64.17L269.325 53.7976L263.665 48.0352H260.269L254.383 44.5778L246.005 48.0352H238.081L230.157 53.7976L222.233 60.7125L216.346 67.6274L210.006 71.0849L201.403 67.6274L194.611 71.0849L187.818 74.5424L181.479 71.0849L172.876 79.1523L165.63 74.5424L158.385 79.1523H151.367L143.895 82.6097H136.197L128.5 86.0672L121.028 79.1523L113.557 82.6097Z" fill="url(#paint0_linear_25_8096)"/>
</g>
<defs>
<linearGradient id="paint0_linear_25_8096" x1="259.391" y1="110.137" x2="265.414" y2="322.018" gradientUnits="userSpaceOnUse">
<stop stop-color="#2B26FF"/>
<stop offset="1" stop-color="#7F56D9" stop-opacity="0"/>
</linearGradient>
</defs>
</svg>
