<svg width="676" height="632" viewBox="0 0 676 632" fill="none" xmlns="http://www.w3.org/2000/svg">
<g clip-path="url(#clip0_390_12212)">
<path d="M624.591 456.458L654.902 461.195C665.163 448.772 672.236 434.033 675.507 418.256C653.343 436.399 619.637 426.758 592.762 436.663C584.404 439.816 576.862 444.81 570.696 451.275C564.53 457.739 559.897 465.508 557.142 474.006L542.329 489.944C555.738 495.252 570.138 497.591 584.538 496.798C598.938 496.005 612.995 492.1 625.74 485.351C632.852 481.495 639.451 476.758 645.38 471.252C634.774 464.574 624.591 456.458 624.591 456.458Z" fill="#F2F2F2"/>
<path d="M613.831 407.98L643.074 398.702C646.717 383.007 646.474 366.661 642.365 351.081C630.619 377.204 596.152 383.607 576.515 404.458C570.44 411.008 565.917 418.842 563.281 427.378C560.645 435.914 559.964 444.933 561.287 453.768L555.137 474.639C569.506 473.41 583.438 469.081 595.973 461.949C608.508 454.818 619.348 445.054 627.745 433.329C632.391 426.705 636.185 419.523 639.036 411.951C626.565 410.703 613.831 407.98 613.831 407.98Z" fill="#F2F2F2"/>
<path d="M675.67 499.598C675.671 499.755 675.64 499.91 675.58 500.054C675.521 500.199 675.433 500.33 675.323 500.441C675.212 500.551 675.081 500.639 674.936 500.699C674.791 500.758 674.636 500.789 674.48 500.788H1.19C0.874395 500.788 0.57171 500.663 0.348541 500.44C0.125373 500.216 0 499.914 0 499.598C0 499.283 0.125373 498.98 0.348541 498.757C0.57171 498.534 0.874395 498.408 1.19 498.408H674.48C674.636 498.408 674.791 498.438 674.936 498.498C675.08 498.558 675.212 498.645 675.323 498.756C675.433 498.866 675.521 498.998 675.58 499.142C675.64 499.287 675.671 499.442 675.67 499.598Z" fill="#CCCCCC"/>
<path d="M279 449C372.336 449 448 373.336 448 280C448 186.664 372.336 111 279 111C185.664 111 110 186.664 110 280C110 373.336 185.664 449 279 449Z" fill="#E6E6E6"/>
<path d="M424 280C424.017 302.625 418.732 324.94 408.568 345.154C398.405 365.368 383.646 382.919 365.475 396.4C364.26 397.309 363.022 398.195 361.775 399.057C337.477 415.947 308.592 425 279 425C249.408 425 220.523 415.947 196.225 399.057C194.978 398.195 193.74 397.309 192.525 396.4C174.367 382.907 159.617 365.354 149.455 345.142C139.293 324.931 134 302.622 134 280C134 257.378 139.293 235.069 149.455 214.858C159.617 194.646 174.367 177.093 192.525 163.6C193.74 162.691 194.978 161.805 196.225 160.943C220.523 144.053 249.408 135 279 135C308.592 135 337.477 144.053 361.775 160.943C363.022 161.805 364.26 162.691 365.475 163.6C383.646 177.081 398.405 194.632 408.568 214.846C418.732 235.06 424.017 257.375 424 280Z" fill="white"/>
<path d="M279 413C352.454 413 412 353.454 412 280C412 206.546 352.454 147 279 147C205.546 147 146 206.546 146 280C146 353.454 205.546 413 279 413Z" fill="#00BFA6"/>
<path opacity="0.2" d="M279.594 148C277.587 148 275.592 148.053 273.607 148.141C307.072 151.084 338.167 166.646 360.594 191.676C383.021 216.705 395.102 249.33 394.389 282.94C393.676 316.55 380.223 348.632 356.755 372.687C333.287 396.741 301.559 410.97 268 412.489C271.822 412.82 275.687 413 279.594 413C314.71 413 348.388 399.04 373.219 374.192C398.05 349.343 412 315.641 412 280.5C412 245.359 398.05 211.657 373.219 186.808C348.388 161.96 314.71 148 279.594 148Z" fill="black"/>
<path d="M279.5 138C278.307 138.002 277.164 138.45 276.32 139.245C275.477 140.04 275.002 141.118 275 142.243V160.757C275 161.882 275.474 162.962 276.318 163.757C277.162 164.553 278.307 165 279.5 165C280.693 165 281.838 164.553 282.682 163.757C283.526 162.962 284 161.882 284 160.757V142.243C283.998 141.118 283.523 140.04 282.68 139.245C281.836 138.45 280.693 138.002 279.5 138Z" fill="white"/>
<path d="M365.672 163.648C364.471 162.745 363.246 161.866 362.013 161.009C361.273 160.961 360.534 161.107 359.867 161.433C359.201 161.759 358.631 162.255 358.214 162.87L347.739 178.309C347.103 179.248 346.864 180.402 347.075 181.517C347.286 182.633 347.929 183.618 348.864 184.257C349.798 184.897 350.947 185.137 352.058 184.925C353.169 184.713 354.151 184.067 354.787 183.128L365.261 167.689C365.66 167.104 365.906 166.427 365.978 165.721C366.05 165.016 365.945 164.303 365.672 163.648Z" fill="white"/>
<path d="M413.685 234.565C413.472 234.065 413.159 233.609 412.762 233.224C412.365 232.84 411.893 232.533 411.373 232.323C410.853 232.113 410.294 232.003 409.73 232C409.165 231.997 408.605 232.1 408.082 232.304L390.68 239.067C389.623 239.479 388.781 240.275 388.338 241.281C387.895 242.287 387.887 243.42 388.316 244.432C388.746 245.443 389.577 246.25 390.628 246.675C391.678 247.1 392.862 247.109 393.919 246.698L411.322 239.935C412.377 239.522 413.219 238.724 413.662 237.718C414.105 236.711 414.113 235.578 413.685 234.565Z" fill="white"/>
<path d="M210.261 178.309L199.786 162.87C199.369 162.255 198.799 161.759 198.133 161.433C197.466 161.107 196.727 160.961 195.987 161.009C194.754 161.866 193.529 162.745 192.328 163.648C192.055 164.303 191.95 165.016 192.022 165.721C192.094 166.427 192.34 167.104 192.739 167.689L203.213 183.128C203.849 184.067 204.831 184.713 205.942 184.925C207.053 185.137 208.202 184.897 209.136 184.257C210.071 183.618 210.714 182.633 210.925 181.517C211.136 180.402 210.897 179.248 210.261 178.309Z" fill="white"/>
<path d="M167.321 239.066L149.921 232.303C148.864 231.892 147.68 231.9 146.629 232.324C145.578 232.749 144.746 233.557 144.316 234.569C143.887 235.581 143.895 236.714 144.339 237.721C144.782 238.727 145.625 239.524 146.682 239.935L164.082 246.698C165.139 247.109 166.322 247.1 167.373 246.675C168.423 246.25 169.254 245.443 169.684 244.431C170.113 243.42 170.105 242.287 169.662 241.28C169.219 240.274 168.377 239.478 167.321 239.066Z" fill="white"/>
<path d="M279.5 395C278.307 395.002 277.164 395.45 276.32 396.245C275.477 397.04 275.002 398.118 275 399.243V417.757C275 418.882 275.474 419.962 276.318 420.757C277.162 421.553 278.307 422 279.5 422C280.693 422 281.838 421.553 282.682 420.757C283.526 419.962 284 418.882 284 417.757V399.243C283.998 398.118 283.523 397.04 282.68 396.245C281.836 395.45 280.693 395.002 279.5 395Z" fill="white"/>
<path d="M365.261 392.311L354.787 376.872C354.472 376.407 354.069 376.009 353.6 375.701C353.132 375.393 352.608 375.18 352.058 375.075C351.508 374.97 350.943 374.975 350.395 375.09C349.847 375.204 349.326 375.426 348.864 375.743C348.401 376.059 348.005 376.464 347.698 376.934C347.391 377.404 347.179 377.931 347.075 378.483C346.97 379.035 346.975 379.603 347.089 380.153C347.203 380.704 347.424 381.226 347.739 381.691L358.214 397.13C358.631 397.745 359.201 398.24 359.867 398.567C360.534 398.893 361.273 399.039 362.013 398.991C363.246 398.135 364.471 397.255 365.672 396.352C365.945 395.697 366.05 394.984 365.978 394.279C365.906 393.573 365.66 392.896 365.261 392.311Z" fill="white"/>
<path d="M411.321 320.066L393.921 313.303C392.864 312.892 391.68 312.9 390.629 313.324C389.578 313.749 388.746 314.557 388.316 315.569C387.887 316.581 387.895 317.714 388.339 318.721C388.782 319.727 389.625 320.524 390.682 320.935L408.082 327.698C409.139 328.109 410.322 328.1 411.373 327.675C412.423 327.25 413.254 326.443 413.684 325.431C414.113 324.42 414.105 323.287 413.662 322.28C413.219 321.274 412.377 320.478 411.321 320.066Z" fill="white"/>
<path d="M209.136 375.742C208.202 375.103 207.053 374.863 205.942 375.075C204.831 375.287 203.85 375.933 203.213 376.871L192.739 392.311C192.34 392.896 192.094 393.573 192.022 394.279C191.95 394.984 192.055 395.697 192.328 396.351C193.529 397.255 194.754 398.134 195.987 398.991C196.727 399.039 197.466 398.893 198.133 398.567C198.799 398.241 199.369 397.745 199.786 397.13L210.26 381.691C210.576 381.226 210.797 380.703 210.911 380.153C211.025 379.603 211.03 379.035 210.925 378.483C210.821 377.93 210.609 377.404 210.302 376.934C209.995 376.463 209.599 376.059 209.136 375.742Z" fill="white"/>
<path d="M169.685 315.565C169.472 315.065 169.159 314.609 168.762 314.224C168.365 313.84 167.893 313.533 167.373 313.323C166.853 313.113 166.294 313.003 165.73 313C165.165 312.997 164.605 313.1 164.082 313.304L146.68 320.067C145.623 320.479 144.781 321.275 144.338 322.281C143.895 323.287 143.887 324.42 144.316 325.432C144.746 326.443 145.577 327.25 146.628 327.675C147.678 328.1 148.862 328.109 149.919 327.698L167.322 320.935C168.377 320.522 169.219 319.724 169.662 318.718C170.105 317.711 170.113 316.578 169.685 315.565Z" fill="white"/>
<path d="M284.873 277.492C285.273 279.845 284.718 282.26 283.328 284.207C281.939 286.154 279.829 287.473 277.461 287.876L200.578 300.873C199.405 301.071 198.205 301.038 197.045 300.775C195.885 300.512 194.789 300.024 193.818 299.341C192.848 298.657 192.023 297.789 191.389 296.788C190.756 295.788 190.328 294.672 190.128 293.507C189.929 292.341 189.962 291.148 190.227 289.996C190.491 288.843 190.982 287.753 191.67 286.789C192.358 285.825 193.231 285.005 194.238 284.375C195.245 283.746 196.367 283.32 197.54 283.122L274.423 270.126C276.791 269.728 279.222 270.281 281.181 271.661C283.14 273.042 284.468 275.139 284.873 277.492Z" fill="#3F3D56"/>
<path d="M365.299 362.273C364.201 363.373 362.71 363.994 361.153 364C359.597 364.006 358.101 363.397 356.994 362.305L274.733 280.999C273.629 279.906 273.005 278.421 273 276.87C272.995 275.32 273.607 273.83 274.704 272.73C275.8 271.629 277.29 271.007 278.847 271C280.403 270.993 281.898 271.602 283.004 272.693L365.266 354C366.37 355.093 366.994 356.579 367 358.13C367.006 359.681 366.394 361.171 365.299 362.273Z" fill="#3F3D56"/>
<path d="M279 290C284.523 290 289 285.523 289 280C289 274.477 284.523 270 279 270C273.477 270 269 274.477 269 280C269 285.523 273.477 290 279 290Z" fill="#CCCCCC"/>
<path d="M208.78 102.946C193.108 127.685 169.197 144.103 139.709 154.889C139.126 155.327 138.463 155.646 137.758 155.827C137.053 156.008 136.319 156.047 135.598 155.944C134.877 155.84 134.184 155.594 133.558 155.221C132.932 154.849 132.385 154.356 131.949 153.77C115.931 132.296 119.548 101.605 140.688 85.1961C145.799 81.2359 151.642 78.3345 157.879 76.6604C164.116 74.9863 170.622 74.5729 177.019 75.444C183.416 76.3152 189.577 78.4537 195.145 81.7353C200.712 85.0169 205.575 89.3762 209.45 94.5603L209.894 95.1542C210.33 95.7393 210.647 96.405 210.827 97.1132C211.008 97.8214 211.047 98.5584 210.944 99.2819C210.84 100.006 210.596 100.702 210.225 101.33C209.853 101.959 209.362 102.508 208.78 102.946Z" fill="#E6E6E6"/>
<path d="M348.55 94.5603C352.425 89.3762 357.288 85.0169 362.855 81.7353C368.423 78.4537 374.584 76.3152 380.981 75.444C387.378 74.5729 393.884 74.9863 400.121 76.6604C406.358 78.3345 412.201 81.2359 417.312 85.1961C438.452 101.605 442.069 132.296 426.051 153.77C425.615 154.356 425.068 154.849 424.442 155.221C423.816 155.594 423.123 155.84 422.402 155.944C421.681 156.047 420.947 156.008 420.242 155.827C419.537 155.646 418.874 155.327 418.291 154.889C390.916 144.365 368.467 126.154 349.22 102.946C348.044 102.061 347.265 100.743 347.056 99.2819C346.847 97.8206 347.225 96.3358 348.106 95.1542L348.55 94.5603Z" fill="#E6E6E6"/>
<path d="M358.941 420.134C357.67 420.848 356.734 422.037 356.338 423.44C355.942 424.843 356.118 426.346 356.827 427.62L388.569 484.342C389.282 485.615 390.47 486.552 391.874 486.949C393.278 487.345 394.781 487.167 396.054 486.455C397.327 485.743 398.264 484.554 398.661 483.151C399.057 481.747 398.88 480.243 398.168 478.971L366.426 422.248C365.712 420.977 364.523 420.041 363.12 419.645C361.717 419.248 360.215 419.424 358.941 420.134Z" fill="#E6E6E6"/>
<path d="M191.569 422.248L159.827 478.97C159.115 480.243 158.938 481.747 159.335 483.15C159.731 484.554 160.669 485.743 161.942 486.455C163.214 487.167 164.718 487.345 166.122 486.948C167.525 486.552 168.714 485.615 169.426 484.342L201.168 427.62C201.521 426.989 201.747 426.296 201.831 425.578C201.916 424.861 201.859 424.134 201.663 423.439C201.466 422.743 201.135 422.094 200.688 421.526C200.24 420.959 199.686 420.486 199.055 420.133C198.425 419.78 197.731 419.555 197.014 419.47C196.296 419.386 195.569 419.443 194.874 419.64C194.179 419.836 193.529 420.168 192.962 420.615C192.395 421.063 191.922 421.617 191.569 422.248Z" fill="#E6E6E6"/>
<path d="M394.998 498.866C404.386 498.866 411.998 491.255 411.998 481.866C411.998 472.477 404.386 464.866 394.998 464.866C385.609 464.866 377.998 472.477 377.998 481.866C377.998 491.255 385.609 498.866 394.998 498.866Z" fill="#E6E6E6"/>
<path d="M379.5 146C386.956 146 393 140.18 393 133C393 125.82 386.956 120 379.5 120C372.044 120 366 125.82 366 133C366 140.18 372.044 146 379.5 146Z" fill="#E6E6E6"/>
<path d="M278.5 115C285.956 115 292 108.956 292 101.5C292 94.0442 285.956 88 278.5 88C271.044 88 265 94.0442 265 101.5C265 108.956 271.044 115 278.5 115Z" fill="#E6E6E6"/>
<path d="M181.5 145C188.956 145 195 138.956 195 131.5C195 124.044 188.956 118 181.5 118C174.044 118 168 124.044 168 131.5C168 138.956 174.044 145 181.5 145Z" fill="#E6E6E6"/>
<path d="M165.998 498.866C175.386 498.866 182.998 491.255 182.998 481.866C182.998 472.477 175.386 464.866 165.998 464.866C156.609 464.866 148.998 472.477 148.998 481.866C148.998 491.255 156.609 498.866 165.998 498.866Z" fill="#E6E6E6"/>
<path d="M304.644 296.397C305.445 297.619 306.511 298.655 307.768 299.432C309.024 300.21 310.439 300.709 311.915 300.895C313.39 301.082 314.89 300.95 316.308 300.51C317.726 300.071 319.027 299.333 320.121 298.35L352 315L350.29 296.757L320.28 283.742C318.463 282.061 316.077 281.087 313.574 281.006C311.07 280.924 308.623 281.741 306.696 283.3C304.769 284.86 303.495 287.055 303.117 289.469C302.739 291.882 303.283 294.347 304.644 296.397Z" fill="#FFB7B7"/>
<path d="M327 303.13L339.425 286L399.285 314.261L473.773 300.303C477.455 299.613 481.244 299.741 484.87 300.678C488.497 301.615 491.873 303.338 494.758 305.724C497.643 308.111 499.967 311.103 501.564 314.487C503.161 317.871 503.993 321.565 504 325.306C504.005 332.064 501.326 338.548 496.55 343.335C491.775 348.122 485.292 350.822 478.526 350.842L393.163 351L327 303.13Z" fill="#3F3D56"/>
<path d="M308.634 599L296 593.045L313.355 541L332 549.79L308.634 599Z" fill="#FFB7B7"/>
<path d="M393 591.034C392.063 591.6 391.126 592.157 390.179 592.714C388.295 593.828 386.392 594.923 384.49 596C383.534 596.539 382.568 597.078 381.612 597.607V597.635L381.555 597.644L381.536 597.653L380.078 598L377.986 592.668L377.021 590.213L375.658 586.734L373.158 580.371L360 546.866L380.457 542L381.224 545.022H381.233L381.612 546.519L388.759 574.473L390.217 580.189L390.264 580.362L391.145 583.776L391.902 586.734L392.744 590.039L393 591.034Z" fill="#FFB7B7"/>
<path d="M511.999 472.671C510.734 474.705 509.442 476.729 508.14 478.735C505.722 482.469 503.239 486.148 500.692 489.771C500.692 489.78 500.683 489.78 500.673 489.789C499.187 491.168 497.546 492.369 495.782 493.367C495.708 493.422 495.625 493.459 495.551 493.505C494.252 494.224 492.869 494.78 491.434 495.16C490.918 495.289 490.391 495.419 489.875 495.548C488.01 495.992 486.164 496.371 484.327 496.703C481.06 497.286 477.83 497.702 474.618 497.96C474.359 497.988 474.101 498.007 473.842 498.025C460.635 498.996 447.777 497.434 434.357 494.873C427.73 493.616 420.965 492.109 413.959 490.547C411.67 490.03 409.372 489.521 407.046 489.013C406.871 488.976 406.686 488.93 406.502 488.893C403.179 488.163 399.801 487.442 396.34 486.73C391.983 485.833 387.488 484.965 382.818 484.142L383.15 490.732C383.427 495.802 384.479 500.799 386.27 505.549C388.263 511.391 389.842 516.012 386.51 525.634L384.904 530.293C385.736 532.606 386.022 535.081 385.739 537.523C385.455 539.966 384.61 542.309 383.27 544.37L382.947 544.86L396.34 578.791L397.207 580.991H390.349L381.913 581H367.616L346.988 539.554L346 537.576V537.474L348.132 457.827C348.16 457.125 348.215 456.413 348.307 455.71C348.683 452.517 349.691 449.43 351.271 446.631C352.851 443.832 354.972 441.375 357.51 439.406C359.942 437.502 362.727 436.102 365.705 435.286C368.682 434.471 371.792 434.256 374.852 434.655L381.913 435.57L396.34 437.437L406.501 438.759L406.705 438.786L436.674 442.668L438.824 433.887L439.221 433.74L451.838 429.109L495.477 413.091L495.588 413.054L498.458 412L498.8 412.555C498.901 412.721 499.003 412.887 499.095 413.054C501.932 418.147 504.242 423.518 505.99 429.081C508.928 438.17 511.347 447.419 513.235 456.783C513.318 457.189 513.392 457.559 513.457 457.892L513.484 457.993C513.512 458.151 513.531 458.252 513.54 458.28C514.546 462.476 513.844 467.597 511.999 472.671Z" fill="#2F2E41"/>
<path d="M513.32 442.718C513.181 442.127 513.006 441.528 512.822 440.946C511.358 436.543 509.653 432.225 507.714 428.01C505.538 423.212 502.928 418.072 499.821 412.508C498.318 409.814 496.702 407.012 494.971 404.103C494.105 402.645 493.204 401.159 492.27 399.646C492.233 399.576 492.193 399.508 492.15 399.443L491.883 399L448.75 404.776L432.688 406.926L431.729 414.935L431.498 416.919C431.489 416.919 431.489 416.919 431.498 416.928L430.853 422.335V422.345L429.995 429.486L429.922 429.477L406.087 426.386L381.524 423.203L368.33 421.496C365.272 421.097 362.165 421.311 359.191 422.125C356.217 422.939 353.434 424.338 351.005 426.238C348.47 428.205 346.351 430.657 344.773 433.452C343.195 436.246 342.188 439.327 341.812 442.515C341.729 443.161 341.674 443.825 341.646 444.48L329.198 473.998C321.75 491.651 317.006 510.327 315.128 529.397L306 558.601L307.3 558.721L326.644 560.52L331.752 561L343.001 544.567C344.283 542.694 345.5 540.765 346.634 538.79C348.501 535.565 350.161 532.225 351.604 528.788L375.936 470.842C377.817 471.165 379.68 471.473 381.524 471.765C390.053 473.149 398.241 474.278 406.087 475.151C431.6 478.002 453.692 478.224 473.359 475.806C478.882 475.133 484.22 474.247 489.375 473.149C491.265 472.752 493.13 472.325 494.971 471.866C495.405 471.765 495.829 471.663 496.253 471.553C500.064 470.569 503.567 468.645 506.442 465.956C509.317 463.267 511.473 459.9 512.711 456.162C514.19 451.83 514.401 447.166 513.32 442.718Z" fill="#2F2E41"/>
<path d="M312.673 590.607L298.983 584.033L296.836 583L293.406 591.436L269.464 596.715C268.281 596.975 267.211 597.608 266.411 598.52C265.612 599.432 265.125 600.577 265.021 601.787C264.917 602.996 265.202 604.207 265.834 605.243C266.467 606.279 267.413 607.085 268.535 607.544L291.928 617.106L299.354 610.412L297.533 619.397L306.343 623L316 592.209L312.673 590.607Z" fill="#2F2E41"/>
<path d="M458.703 593.34L459.434 595.189H458.703V593.34Z" fill="#2F2E41"/>
<path d="M390.978 580.213L376.815 585.216L374.592 585.998L378.036 594.45L364.901 615.175C364.25 616.199 363.938 617.408 364.01 618.625C364.082 619.843 364.534 621.005 365.3 621.942C366.066 622.88 367.106 623.542 368.267 623.834C369.429 624.126 370.652 624.031 371.757 623.564L394.8 613.823L395.367 603.784L400.32 611.489L409 607.822L394.423 579L390.978 580.213Z" fill="#2F2E41"/>
<path d="M510.435 456C509.597 455.998 508.771 455.793 508.028 455.4L433.484 416.281L432.623 412.739L431 401.532L431.022 401.427L438.112 368.601C437.982 368.319 437.71 367.857 437.404 367.335C434.239 361.949 424.607 345.558 442.989 322.988L475.264 285.197L502.964 284L503.28 284.4C510.687 293.737 515.682 304.767 517.821 316.51C519.961 328.253 519.179 340.344 515.544 351.711L512.66 404.028L515.754 414.594C517.562 420.803 517.263 427.439 514.903 433.459L515.613 450.567C515.64 451.268 515.527 451.968 515.279 452.624C515.032 453.281 514.655 453.88 514.172 454.387C513.689 454.894 513.109 455.298 512.467 455.575C511.825 455.852 511.134 455.997 510.435 456Z" fill="#3F3D56"/>
<path d="M444.83 499.547C446.139 498.792 447.262 497.767 448.121 496.542C448.979 495.317 449.553 493.924 449.8 492.459C450.048 490.995 449.964 489.496 449.553 488.066C449.143 486.637 448.417 485.313 447.426 484.188L466 453L446.829 454.055L432.13 483.51C430.303 485.261 429.199 487.605 429.024 490.098C428.85 492.591 429.618 495.059 431.184 497.036C432.749 499.013 435.003 500.361 437.518 500.823C440.033 501.286 442.635 500.832 444.83 499.547Z" fill="#FFB7B7"/>
<path d="M452.012 476L435 462.996L465.912 404.202L454.329 329.329C453.757 325.629 454.022 321.849 455.105 318.26C456.188 314.671 458.063 311.36 460.596 308.562C463.13 305.764 466.26 303.547 469.764 302.07C473.269 300.593 477.061 299.891 480.873 300.014C487.758 300.244 494.269 303.145 498.977 308.081C503.685 313.016 506.206 319.584 505.987 326.341L503.125 411.593L452.012 476Z" fill="#3F3D56"/>
<path d="M456 268.075V240.702C455.994 230.975 459.91 221.643 466.887 214.76C473.864 207.877 483.331 204.006 493.205 204C503.079 203.994 512.551 207.852 519.537 214.726C526.523 221.601 530.452 230.927 530.458 240.655V240.702C537.019 254.174 532.915 260.578 530.458 268.075C530.456 269.381 529.928 270.632 528.991 271.555C528.054 272.478 526.784 272.998 525.459 273H461.001C459.676 272.998 458.405 272.479 457.467 271.556C456.53 270.633 456.002 269.381 456 268.075Z" fill="#2F2E41"/>
<path d="M481.5 272C496.688 272 509 259.688 509 244.5C509 229.312 496.688 217 481.5 217C466.312 217 454 229.312 454 244.5C454 259.688 466.312 272 481.5 272Z" fill="#FFB7B7"/>
<path d="M511.148 251C510.896 250.961 510.644 250.909 510.391 250.87C506.052 250.119 501.713 249.38 497.388 248.615L496.99 239.037L491.748 247.617C479.793 251.492 468.607 249.302 458.085 244.468C454.614 242.858 451.246 241.045 448 239.037C448.884 233.74 450.969 228.703 454.103 224.294C457.237 219.885 461.34 216.217 466.112 213.557C466.511 213.336 466.895 213.142 467.293 212.947L467.298 212.946L467.303 212.944L467.306 212.939L467.307 212.934C467.983 212.623 468.673 212.325 469.363 212.053C474.765 209.991 480.655 209.469 486.349 210.547C492.043 211.626 497.306 214.26 501.528 218.145C510.02 226.064 513.841 239.141 511.148 251Z" fill="#2F2E41"/>
</g>
<defs>
<clipPath id="clip0_390_12212">
<rect width="675.67" height="631.947" fill="white"/>
</clipPath>
</defs>
</svg>
